<svg width="100" height="120" viewBox="0 0 100 120" fill="none" xmlns="http://www.w3.org/2000/svg">
<g clip-path="url(#clip0_46_1033)">
<path fill-rule="evenodd" clip-rule="evenodd" d="M20 0H100V20L80 40V20H20V100H40L20 120H0V20L20 0Z" fill="#FF595E"/>
<path d="M20 80L0 100V20L20 0H80L60 20H20V80Z" fill="#C44347"/>
<path fill-rule="evenodd" clip-rule="evenodd" d="M20 20H80.0001V40H40L40 55.0002H60.0001V73H40L40 100H20V20Z" fill="white"/>
<path d="M99.9999 19.9999L80.0001 40H40L40 55.0002H60.0001V73H40L40 100L19.9999 120L31.9999 120C32.6471 120.123 35.8096 120.081 38.8768 120.04C40.3754 120.02 41.8512 120 42.9999 120C43.0994 120 43.1946 120 43.2857 120C44.7563 120.003 45.1584 120.004 45.4375 119.243C45.5328 118.984 46.2315 115.772 46.9832 112.108C47.8937 107.733 48.4337 105.319 48.5607 105.103C48.9736 104.435 49.2807 104.273 52.5098 103.023C55.9929 101.665 56.4376 101.568 57.2105 101.989C57.401 102.096 59.8361 104.047 62.61 106.332C65.3944 108.616 67.8083 110.567 67.9882 110.675C68.2212 110.815 68.4647 110.858 68.867 110.826C69.4069 110.793 69.5234 110.707 72.5619 108.369C78.7343 103.616 79.3166 103.153 79.5177 102.862C79.6342 102.711 79.7506 102.344 79.7718 102.053C79.8247 101.579 79.613 100.954 77.3685 94.9619C76.0134 91.3409 74.8805 88.2155 74.8594 88.0107C74.7535 87.2671 74.997 86.8037 76.6909 84.4327C77.6014 83.1718 78.4484 82.0187 78.5755 81.8894C78.946 81.4691 79.5812 81.1888 80.1741 81.1996C80.46 81.1996 83.6255 81.5229 87.1934 81.9217L93.6728 82.633L94.1281 82.4282C94.3716 82.3097 94.6574 82.1264 94.7633 82.0079C94.9115 81.8355 98.617 71.7266 99.2311 69.819C99.464 69.1185 99.3158 68.5258 98.7758 67.9654C98.5641 67.7391 95.9385 65.7237 92.9423 63.4821C87.564 59.4623 87.5005 59.4084 87.2358 58.8156L86.9711 58.2229L87.0981 55.9058C87.2675 52.8775 87.2887 52.7374 87.6805 52.1554C87.9981 51.692 88.2416 51.5519 94.1704 48.5235C97.5689 46.7884 98.9046 46.0755 98.9999 46.0001C99.932 45.2621 99.9999 43.7911 99.9999 43.5001C99.9999 43.4338 100.004 43.1156 100.009 42.6196L100.009 42.6101C100.042 39.7071 100.144 30.785 99.9999 30.5001V19.9999Z" fill="#389BE0"/>
</g>
<defs>
<clipPath id="clip0_46_1033">
<rect width="100" height="120" fill="white"/>
</clipPath>
</defs>
</svg>
